<svg width="550" height="392" viewBox="0 0 550 392" fill="none" xmlns="http://www.w3.org/2000/svg">
<g clip-path="url(#clip0_502_2775)">
<path d="M89.627 72C89.627 58.7452 100.372 48 113.627 48H397.05C410.305 48 421.05 58.7452 421.05 72V392H89.627V72Z" fill="black"/>
<path d="M96.1465 76.5322C96.1465 64.3819 105.996 54.5322 118.146 54.5322H392.53C404.68 54.5322 414.53 64.382 414.53 76.5322V392.001H96.1465V76.5322Z" fill="white"/>
<path d="M187.596 52.6472H322.729V50.1768C322.729 59.1817 313.973 66.4816 303.171 66.4816H207.155C196.352 66.4816 187.596 59.1817 187.596 50.1768V52.6472Z" fill="black"/>
<path d="M445.989 110.806H66.0897C60.0082 110.806 55.0781 115.736 55.0781 121.817V333.79C55.0781 339.871 60.0082 344.801 66.0897 344.801H445.989C452.07 344.801 457 339.871 457 333.79V121.817C457 115.736 452.07 110.806 445.989 110.806Z" fill="url(#paint0_linear_502_2775)"/>
<path d="M83.6113 143.729L88.326 149.346H91.5962L85.5571 141.977L83.6113 143.729Z" fill="white"/>
<path d="M93.6209 132.828H89.7375L79.7652 141.985V135.128L77.1035 137.326V144.429V147.924V147.926L77.1059 147.922L79.6695 145.577L93.6209 132.828Z" fill="#FFB81C"/>
<path d="M199.949 172.119V170.756H206.832V172.119H204.175V180.185H202.633V172.119H199.949ZM210.939 177.17C210.939 178.39 211.581 179.001 212.866 179.001C214.151 179.001 214.793 178.39 214.793 177.17V170.756H216.335V177.143C216.335 178.253 216.041 179.065 215.454 179.579C214.875 180.083 214.008 180.335 212.852 180.335C211.705 180.335 210.843 180.083 210.264 179.579C209.687 179.065 209.397 178.253 209.397 177.143V170.756H210.939V177.17ZM226.976 171.94C225.81 171.94 225.227 172.348 225.227 173.164C225.227 173.587 225.366 173.889 225.641 174.073C225.916 174.247 226.522 174.468 227.457 174.734C228.402 174.99 229.068 175.303 229.453 175.669C229.839 176.027 230.032 176.596 230.032 177.376C230.032 178.367 229.747 179.111 229.178 179.606C228.618 180.093 227.852 180.335 226.88 180.335C226.099 180.335 225.237 180.244 224.292 180.06L223.796 179.964L223.948 178.74C225.187 178.904 226.132 178.987 226.784 178.987C227.921 178.987 228.49 178.482 228.49 177.472C228.49 177.078 228.362 176.789 228.104 176.606C227.848 176.413 227.269 176.206 226.37 175.986C225.471 175.757 224.802 175.445 224.361 175.05C223.92 174.655 223.7 174.032 223.7 173.179C223.7 172.325 223.975 171.682 224.525 171.251C225.085 170.811 225.856 170.591 226.838 170.591C227.544 170.591 228.379 170.673 229.343 170.839L229.826 170.92L229.701 172.159C228.416 172.013 227.508 171.94 226.976 171.94ZM232.126 180.185L234.452 170.756H237.494L239.834 180.185H238.293L237.783 178.161H234.163L233.654 180.185H232.126ZM235.637 172.036L234.467 176.812H237.48L236.324 172.036H235.637ZM247.84 180.185H242.555V170.756H244.083V178.822H247.84V180.185ZM253.726 180.185H250.464V170.756H253.726C255.176 170.756 256.167 171.122 256.699 171.857C257.231 172.591 257.497 173.743 257.497 175.311C257.497 176.11 257.443 176.789 257.332 177.349C257.231 177.899 257.048 178.4 256.781 178.849C256.258 179.739 255.24 180.185 253.726 180.185ZM255.915 175.311C255.915 174.174 255.773 173.352 255.488 172.848C255.203 172.344 254.616 172.091 253.726 172.091H251.992V178.836H253.726C254.634 178.836 255.24 178.501 255.542 177.83C255.69 177.491 255.786 177.129 255.832 176.743C255.887 176.358 255.915 175.881 255.915 175.311ZM262.296 178.188C262.608 178.73 263.205 179.001 264.086 179.001C264.967 179.001 265.558 178.734 265.862 178.203C266.173 177.67 266.329 176.78 266.329 175.532C266.329 174.275 266.168 173.362 265.847 172.793C265.535 172.224 264.948 171.94 264.086 171.94C263.223 171.94 262.631 172.224 262.31 172.793C261.989 173.362 261.828 174.27 261.828 175.519C261.828 176.758 261.984 177.647 262.296 178.188ZM267.059 179.179C266.499 179.95 265.508 180.335 264.086 180.335C262.664 180.335 261.667 179.95 261.099 179.179C260.53 178.4 260.245 177.179 260.245 175.519C260.245 173.858 260.53 172.623 261.099 171.815C261.677 171.008 262.672 170.604 264.086 170.604C265.498 170.604 266.489 171.008 267.059 171.815C267.628 172.614 267.912 173.848 267.912 175.519C267.912 177.189 267.628 178.409 267.059 179.179ZM278.635 180.335C277.257 180.335 276.322 179.955 275.826 179.194C275.34 178.432 275.096 177.179 275.096 175.436C275.096 173.693 275.345 172.454 275.84 171.719C276.336 170.976 277.267 170.604 278.635 170.604C279.451 170.604 280.35 170.72 281.332 170.949L281.277 172.188C280.451 172.04 279.626 171.967 278.799 171.967C277.973 171.967 277.413 172.215 277.12 172.71C276.826 173.197 276.68 174.118 276.68 175.477C276.68 176.826 276.822 177.749 277.107 178.244C277.39 178.73 277.946 178.973 278.772 178.973C279.597 178.973 280.432 178.904 281.277 178.767L281.318 180.033C280.373 180.235 279.478 180.335 278.635 180.335ZM289.934 180.185V176.11H285.859V180.185H284.332V170.756H285.859V174.775H289.934V170.756H291.476V180.185H289.934ZM295.01 180.185V170.756H300.957V172.091H296.537V174.761H300.13V176.083H296.537V178.836H300.957V180.185H295.01ZM305.522 180.185H303.994V170.756H305.522V175.009L306.927 174.899L308.853 170.756H310.602L308.276 175.49L310.698 180.185H308.922L306.927 176.248L305.522 176.344V180.185Z" fill="white"/>
<path d="M195.375 218.582C191.069 218.114 187.934 217.88 185.968 217.88C184.002 217.88 182.864 217.942 182.552 218.067C182.24 218.161 182.084 218.379 182.084 218.722C182.084 219.034 182.271 219.284 182.646 219.471C183.02 219.659 184.049 219.939 185.734 220.314C187.45 220.688 188.855 221.046 189.946 221.39C191.039 221.702 192.083 222.107 193.081 222.607C194.08 223.106 194.813 223.699 195.281 224.386C196.217 225.789 196.685 227.833 196.685 230.516C196.685 234.166 195.75 236.803 193.878 238.425C192.037 240.047 189.244 240.921 185.501 241.045V244.462H182.599V241.045C178.979 240.859 175.797 240.421 173.052 239.735L171.601 239.407L172.022 231.311C176.702 231.997 180.539 232.341 183.534 232.341C184.44 232.341 185.063 232.263 185.406 232.107C185.75 231.92 185.921 231.654 185.921 231.311C185.921 230.968 185.734 230.734 185.359 230.61C185.016 230.484 184.034 230.297 182.412 230.048C178.137 229.361 175.22 228.3 173.66 226.866C172.131 225.43 171.367 223.106 171.367 219.892C171.367 215.93 172.287 213.169 174.128 211.609C175.968 210.049 178.792 209.238 182.599 209.175V205.338H185.501V209.175C188.277 209.3 191.163 209.597 194.158 210.065L195.655 210.298L195.375 218.582ZM208.486 232.528C209.703 232.528 210.576 232.263 211.106 231.733C211.637 231.202 211.949 230.407 212.043 229.346L211.574 229.533C210.483 229.969 209.344 230.188 208.159 230.188C204.602 230.188 201.98 229.346 200.297 227.661C198.612 225.945 197.769 223.293 197.769 219.705C197.769 216.086 198.814 213.403 200.905 211.655C202.994 209.909 205.865 209.035 209.516 209.035C213.821 209.035 216.988 210.345 219.016 212.967C221.044 215.587 222.058 219.518 222.058 224.759C222.058 231.031 220.794 235.383 218.267 237.817C217.019 239.002 215.646 239.845 214.149 240.344C212.651 240.843 211.122 241.092 209.562 241.092C206.848 241.092 203.759 240.702 200.297 239.922L198.565 239.502L199.313 231.733C202.808 232.263 205.865 232.528 208.486 232.528ZM209.422 221.904C210.389 221.904 211.278 221.717 212.089 221.343C212.089 219.908 211.917 218.894 211.574 218.301C211.231 217.678 210.546 217.365 209.516 217.365C208.049 217.365 207.316 218.13 207.316 219.659C207.316 221.156 208.018 221.904 209.422 221.904ZM246.868 209.643V219.004H233.624L233.391 221.062C234.732 220.594 236.12 220.361 237.556 220.361C241.174 220.361 243.826 221.093 245.511 222.559C247.196 224.027 248.038 226.616 248.038 230.328C248.038 237.504 244.139 241.092 236.339 241.092C234.873 241.092 233.109 240.936 231.051 240.625C228.992 240.344 227.307 240.047 225.997 239.735L223.984 239.267L224.78 231.639C228.992 232.263 232.501 232.575 235.309 232.575C236.901 232.575 237.696 232.153 237.696 231.311C237.696 230.438 236.947 230.001 235.449 230.001C234.451 230.001 233.391 230.141 232.267 230.423L231.706 230.563L224.78 229.72L225.435 209.643H246.868ZM250.527 240.484V231.171H261.196V240.484H250.527ZM263.423 225.087C263.423 219.409 264.343 215.322 266.185 212.825C268.025 210.298 271.208 209.035 275.732 209.035C280.255 209.035 283.406 210.283 285.184 212.779C286.963 215.244 287.853 219.331 287.853 225.041C287.853 230.719 286.948 234.821 285.138 237.348C283.359 239.845 280.193 241.092 275.637 241.092C271.082 241.092 267.9 239.845 266.091 237.348C264.313 234.821 263.423 230.734 263.423 225.087ZM276.433 218.067C276.246 217.911 275.981 217.834 275.637 217.834C275.294 217.834 275.029 217.911 274.842 218.067C274.655 218.223 274.499 218.566 274.374 219.097C274.156 220.033 274.047 222.03 274.047 225.087C274.047 228.113 274.14 230.079 274.327 230.983C274.546 231.857 274.982 232.295 275.637 232.295C276.293 232.295 276.714 231.857 276.902 230.983C277.119 230.079 277.229 228.456 277.229 226.116C277.229 223.777 277.198 222.154 277.135 221.249C277.105 220.345 277.026 219.627 276.902 219.097C276.776 218.566 276.62 218.223 276.433 218.067ZM289.498 225.087C289.498 219.409 290.418 215.322 292.258 212.825C294.099 210.298 297.281 209.035 301.806 209.035C306.33 209.035 309.481 210.283 311.259 212.779C313.038 215.244 313.926 219.331 313.926 225.041C313.926 230.719 313.022 234.821 311.213 237.348C309.434 239.845 306.267 241.092 301.712 241.092C297.157 241.092 293.975 239.845 292.165 237.348C290.387 234.821 289.498 230.734 289.498 225.087ZM302.507 218.067C302.32 217.911 302.055 217.834 301.712 217.834C301.369 217.834 301.104 217.911 300.917 218.067C300.729 218.223 300.574 218.566 300.449 219.097C300.23 220.033 300.121 222.03 300.121 225.087C300.121 228.113 300.215 230.079 300.402 230.983C300.621 231.857 301.057 232.295 301.712 232.295C302.367 232.295 302.789 231.857 302.976 230.983C303.194 230.079 303.304 228.456 303.304 226.116C303.304 223.777 303.272 222.154 303.21 221.249C303.178 220.345 303.101 219.627 302.976 219.097C302.851 218.566 302.695 218.223 302.507 218.067ZM315.572 225.087C315.572 219.409 316.492 215.322 318.333 212.825C320.174 210.298 323.356 209.035 327.88 209.035C332.404 209.035 335.556 210.283 337.334 212.779C339.111 215.244 340.001 219.331 340.001 225.041C340.001 230.719 339.097 234.821 337.286 237.348C335.508 239.845 332.342 241.092 327.787 241.092C323.231 241.092 320.049 239.845 318.24 237.348C316.461 234.821 315.572 230.734 315.572 225.087ZM328.582 218.067C328.395 217.911 328.13 217.834 327.787 217.834C327.443 217.834 327.179 217.911 326.991 218.067C326.804 218.223 326.648 218.566 326.523 219.097C326.305 220.033 326.195 222.03 326.195 225.087C326.195 228.113 326.289 230.079 326.477 230.983C326.694 231.857 327.132 232.295 327.787 232.295C328.442 232.295 328.864 231.857 329.05 230.983C329.268 230.079 329.377 228.456 329.377 226.116C329.377 223.777 329.347 222.154 329.284 221.249C329.253 220.345 329.175 219.627 329.05 219.097C328.925 218.566 328.769 218.223 328.582 218.067Z" fill="white"/>
<path d="M231.617 263.592H133.183C123.496 263.592 115.643 271.445 115.643 281.132V281.132C115.643 290.819 123.496 298.672 133.183 298.672H231.617C241.304 298.672 249.157 290.819 249.157 281.132C249.157 271.445 241.304 263.592 231.617 263.592Z" fill="white"/>
<path d="M158.498 285.993C157.122 285.993 156.186 285.612 155.69 284.85C155.204 284.089 154.961 282.837 154.961 281.093C154.961 279.35 155.209 278.111 155.704 277.376C156.2 276.633 157.131 276.262 158.498 276.262C159.315 276.262 160.214 276.376 161.196 276.606L161.141 277.844C160.316 277.697 159.489 277.624 158.663 277.624C157.838 277.624 157.278 277.872 156.985 278.367C156.691 278.854 156.544 279.776 156.544 281.134C156.544 282.483 156.687 283.405 156.97 283.901C157.255 284.387 157.81 284.63 158.636 284.63C159.462 284.63 160.297 284.561 161.141 284.424L161.182 285.69C160.237 285.892 159.342 285.993 158.498 285.993ZM163.384 285.842L165.71 276.412H168.752L171.092 285.842H169.551L169.041 283.818H165.421L164.912 285.842H163.384ZM166.894 277.693L165.724 282.469H168.739L167.582 277.693H166.894ZM175.341 282.483V285.842H173.812V276.412H177.391C179.52 276.412 180.585 277.413 180.585 279.414C180.585 280.753 180.071 281.661 179.043 282.139L180.598 285.842H178.919L177.556 282.483H175.341ZM179.015 279.427C179.015 278.298 178.474 277.734 177.391 277.734H175.341V281.161H177.419C177.969 281.161 178.373 281.005 178.63 280.693C178.887 280.372 179.015 279.95 179.015 279.427ZM187.538 282.235V280.886H190.221V285.677C189.974 285.741 189.469 285.81 188.708 285.883C187.956 285.956 187.41 285.993 187.069 285.993C185.638 285.993 184.652 285.598 184.11 284.809C183.569 284.02 183.298 282.785 183.298 281.107C183.298 279.418 183.573 278.188 184.125 277.418C184.684 276.647 185.647 276.262 187.015 276.262C187.822 276.262 188.73 276.353 189.74 276.537L190.221 276.633L190.167 277.844C189.057 277.697 188.06 277.624 187.18 277.624C186.299 277.624 185.693 277.872 185.363 278.367C185.041 278.863 184.881 279.781 184.881 281.12C184.881 282.46 185.033 283.387 185.335 283.901C185.647 284.405 186.271 284.657 187.208 284.657C187.877 284.657 188.378 284.617 188.708 284.534V282.235H187.538ZM192.704 285.842L195.03 276.412H198.072L200.412 285.842H198.869L198.361 283.818H194.74L194.231 285.842H192.704ZM196.213 277.693L195.043 282.469H198.057L196.902 277.693H196.213ZM204.659 282.483V285.842H203.132V276.412H206.71C208.839 276.412 209.904 277.413 209.904 279.414C209.904 280.753 209.39 281.661 208.362 282.139L209.918 285.842H208.238L206.876 282.483H204.659ZM208.335 279.427C208.335 278.298 207.794 277.734 206.71 277.734H204.659V281.161H206.738C207.288 281.161 207.692 281.005 207.949 280.693C208.206 280.372 208.335 279.95 208.335 279.427Z" fill="#523178"/>
<path d="M300.678 282.483V285.842H299.15V276.412H302.729C304.859 276.412 305.923 277.413 305.923 279.413C305.923 280.753 305.409 281.661 304.382 282.138L305.937 285.842H304.257L302.895 282.483H300.678ZM304.353 279.427C304.353 278.298 303.812 277.734 302.729 277.734H300.678V281.161H302.758C303.308 281.161 303.711 281.005 303.968 280.693C304.226 280.372 304.353 279.95 304.353 279.427ZM309.036 285.842V276.412H314.982V277.747H310.564V280.418H314.157V281.74H310.564V284.492H314.982V285.842H309.036ZM317.112 277.776V276.412H323.994V277.776H321.337V285.842H319.796V277.776H317.112ZM326.642 285.842V276.412H328.17V285.842H326.642ZM333.243 282.483V285.842H331.715V276.412H335.294C337.423 276.412 338.487 277.413 338.487 279.413C338.487 280.753 337.973 281.661 336.945 282.138L338.5 285.842H336.822L335.458 282.483H333.243ZM336.918 279.427C336.918 278.298 336.376 277.734 335.294 277.734H333.243V281.161H335.321C335.872 281.161 336.276 281.005 336.532 280.693C336.789 280.372 336.918 279.95 336.918 279.427ZM340.694 285.842L343.02 276.412H346.062L348.402 285.842H346.861L346.351 283.818H342.731L342.222 285.842H340.694ZM344.204 277.693L343.034 282.469H346.049L344.892 277.693H344.204ZM352.65 282.483V285.842H351.122V276.412H354.701C356.83 276.412 357.894 277.413 357.894 279.413C357.894 280.753 357.381 281.661 356.353 282.138L357.908 285.842H356.228L354.866 282.483H352.65ZM356.325 279.427C356.325 278.298 355.784 277.734 354.701 277.734H352.65V281.161H354.729C355.279 281.161 355.683 281.005 355.94 280.693C356.197 280.372 356.325 279.95 356.325 279.427Z" fill="white"/>
<path d="M378.897 264.279H277.709C268.402 264.279 260.857 271.824 260.857 281.131C260.857 290.438 268.402 297.983 277.709 297.983H378.897C388.204 297.983 395.749 290.438 395.749 281.131C395.749 271.824 388.204 264.279 378.897 264.279Z" stroke="white" stroke-width="1.31533"/>
<g filter="url(#filter0_d_502_2775)">
<path d="M438.485 39.4408L443.675 38.0523C475.626 29.5051 508.465 48.4354 517.024 80.3303C525.585 112.225 506.627 145.012 474.676 153.559L469.485 154.948C437.534 163.495 404.696 144.565 396.135 112.67C387.576 80.7748 406.534 47.9881 438.485 39.4408Z" fill="white"/>
<path d="M452.611 132.845C448.72 132.521 445.227 131.502 441.138 129.497C437.343 127.637 434.391 125.515 431.347 122.462C426.375 117.474 422.722 110.632 421.586 104.179C420.908 100.329 420.912 93.671 421.595 89.762C422.475 84.7221 425.299 78.722 428.909 74.2204C430.139 72.6871 432.775 70.0533 434.31 68.8248C438.846 65.1933 444.801 62.3957 449.866 61.5165C453.829 60.8287 460.228 60.8277 464.296 61.5144C469.34 62.3657 475.389 65.1955 479.923 68.8248C481.458 70.0533 484.094 72.6871 485.324 74.2204C489.528 79.463 492.414 86.174 492.914 91.872C493.135 94.4 493.135 99.611 492.914 102.139C492.416 107.811 489.519 114.53 485.306 119.786C480.2 126.156 472.48 130.879 464.648 132.427C461.874 132.975 456.44 133.164 452.611 132.845ZM459.762 130.472C462.151 130.212 465.296 129.474 465.904 129.029C466.151 128.849 466.652 125.145 465.676 124.115C462.588 120.854 455.357 117.144 449.135 117.888C448.06 118.196 442.838 117.64 439.86 124.086L439.611 125.078L440.148 125.545C441.597 126.807 452.025 130.129 455.357 130.528C456.291 130.64 458.472 130.612 459.762 130.472ZM464.982 118.986C466.595 118.224 469.391 115.003 472.618 110.189C473.564 108.779 474.521 107.389 474.745 107.102C474.977 106.804 475.844 106.15 476.755 105.586C478.818 104.307 475.877 102.952 476.093 101.473C476.298 100.076 476.399 99.695 473.905 98.3C473.905 97.309 474.744 98.527 473.383 95.891C472.857 94.873 472.165 93.753 471.846 93.403L471.265 92.766L469.224 92.361C465.699 91.662 463.751 90.984 462.853 90.143C462.64 89.943 462.465 89.649 462.464 89.49C462.461 89.024 462.318 88.915 461.121 88.456C458.891 87.602 451.916 83.8136 449.787 84.4878C446.487 85.5325 443.321 93.125 443.334 95.59C443.344 97.518 449.951 99.216 454.16 100.523C455.205 100.848 456.586 101.275 457.227 101.473C458.024 101.718 458.523 101.964 458.801 102.248C459.827 103.297 460.768 107.662 461.202 113.391C461.497 117.291 461.99 118.837 463.085 119.305C463.603 119.526 463.967 119.465 464.982 118.986ZM429.241 111.801C429.241 110.953 429.588 110.391 431.339 108.398C433.26 106.211 438.555 104.312 438.3 102.611C438.195 101.91 435.386 97.936 432.911 95.891C431.766 94.946 429.238 97.764 427.909 95.107C426.619 92.528 426.014 90.739 425.887 89.129C425.835 88.472 425.731 87.934 425.655 87.934C425.306 87.934 424.221 91.243 423.834 93.489C423.08 97.862 423.691 103.424 425.452 108.233C425.931 109.542 427.447 111.43 428.674 112.246C429.187 112.586 429.241 112.544 429.241 111.801ZM490.234 96.858C490.799 95.703 490.743 93.554 490.06 90.184C489.498 87.414 488.013 83.277 486.853 81.2554C485.77 79.3677 480.476 73.7685 478.535 72.4585C477.569 71.8064 477.44 71.7592 476.633 71.7612C475.861 71.7631 475.565 71.8603 473.905 72.656C471.622 73.7508 471.505 73.7439 470.931 72.4796C470.198 70.8634 469.592 70.9439 466.449 73.0747C465.536 73.6938 464.575 74.4217 464.314 74.6922C463.788 75.237 463.786 75.2792 464.232 76.8939C464.472 77.7622 464.457 78.2687 464.178 78.6949C464.112 78.7965 462.987 79.2775 461.678 79.7639C460.369 80.2502 458.964 80.8181 458.554 81.0258C457.685 81.4668 456.761 82.2628 456.474 82.8176C456.166 83.4125 456.233 84.4878 456.579 84.4878C456.653 84.4878 457.413 84.1633 458.268 83.7667C459.759 83.0745 459.858 83.0485 460.756 83.1186C463.198 83.3092 469.433 86.187 470.878 87.791C471.228 88.179 472.091 89.256 472.797 90.184C474.417 92.315 476.29 94.264 477.31 94.88C478.356 95.511 479.464 95.766 480.392 95.59C481.571 95.367 481.918 94.811 481.546 93.741C481.43 93.409 481.334 93.063 481.333 92.972C481.329 92.622 481.781 92.364 482.398 92.364C482.961 92.364 483.122 92.45 484.042 93.243C485.532 94.528 487.335 96.023 488.3 96.776C489.359 97.602 489.859 97.623 490.234 96.858ZM434.721 76.9402C436.085 76.3887 436.863 79.3069 438.3 79.7639C439.165 80.0391 441.226 79.8363 441.563 79.7639C442.604 79.5405 443.785 77.1122 444.079 75.5812C444.193 74.9823 443.918 73.7318 444.079 73.5061C444.58 72.8028 445.226 71.1684 448.631 69.4793C452.23 67.6946 453.175 67.4013 453.175 68.0693C453.175 68.4785 452.499 69.1037 449.135 71.808C447.014 73.5136 446.276 74.2224 446.276 74.5559C446.276 74.6512 446.36 74.8439 446.463 74.984C446.905 75.5891 448.318 75.2038 453.949 72.9427C460.427 70.341 461.263 69.961 461.316 69.5921C461.453 68.6491 460.888 68.1393 459.587 68.0318C458.74 67.9619 458.734 67.9579 458.42 67.3274C458.237 66.9591 458.091 66.3784 458.072 65.9418C458.033 65.0427 457.862 64.8737 456.372 64.2598C454.628 63.5409 454.03 63.466 452.189 63.7357C446.336 64.5934 440.591 67.1266 435.868 70.9336C434.637 71.9253 431.993 74.5046 431.505 75.1897L431.226 75.5812L431.571 76.0889C431.761 76.3681 431.916 76.6916 431.916 76.8079C431.916 77.4163 433.373 77.485 434.721 76.9402Z" fill="#53357D"/>
</g>
<g filter="url(#filter1_d_502_2775)">
<path d="M95.2054 333.061C95.1824 311.465 77.6569 293.977 56.0611 294C34.4652 294.023 16.977 311.549 17 333.145C17.023 354.741 34.5485 372.229 56.1444 372.206C77.7403 372.183 95.2284 354.657 95.2054 333.061Z" fill="white"/>
<path d="M63.5871 336.913C64.9621 336.913 66.1721 336.161 66.7954 335.024L73.3588 323.126C74.0371 321.916 73.1571 320.413 71.7638 320.413H44.6304L42.9071 316.746H36.9121V320.413H40.5788L47.1788 334.328L44.7038 338.801C43.3654 341.258 45.1254 344.246 47.9121 344.246H69.9121V340.579H47.9121L49.9288 336.913H63.5871ZM46.3721 324.079H68.6471L63.5871 333.246H50.7171L46.3721 324.079ZM47.9121 346.079C45.8954 346.079 44.2638 347.729 44.2638 349.746C44.2638 351.763 45.8954 353.413 47.9121 353.413C49.9288 353.413 51.5788 351.763 51.5788 349.746C51.5788 347.729 49.9288 346.079 47.9121 346.079ZM66.2454 346.079C64.2288 346.079 62.5971 347.729 62.5971 349.746C62.5971 351.763 64.2288 353.413 66.2454 353.413C68.2621 353.413 69.9121 351.763 69.9121 349.746C69.9121 347.729 68.2621 346.079 66.2454 346.079Z" fill="#53357D"/>
</g>
</g>
<defs>
<filter id="filter0_d_502_2775" x="387.08" y="36" width="139" height="135" filterUnits="userSpaceOnUse" color-interpolation-filters="sRGB">
<feFlood flood-opacity="0" result="BackgroundImageFix"/>
<feColorMatrix in="SourceAlpha" type="matrix" values="0 0 0 0 0 0 0 0 0 0 0 0 0 0 0 0 0 0 127 0" result="hardAlpha"/>
<feOffset dy="7"/>
<feGaussianBlur stdDeviation="3.5"/>
<feColorMatrix type="matrix" values="0 0 0 0 0.321569 0 0 0 0 0.192157 0 0 0 0 0.470588 0 0 0 0.07 0"/>
<feBlend mode="normal" in2="BackgroundImageFix" result="effect1_dropShadow_502_2775"/>
<feBlend mode="normal" in="SourceGraphic" in2="effect1_dropShadow_502_2775" result="shape"/>
</filter>
<filter id="filter1_d_502_2775" x="12" y="294" width="88.2051" height="88.2061" filterUnits="userSpaceOnUse" color-interpolation-filters="sRGB">
<feFlood flood-opacity="0" result="BackgroundImageFix"/>
<feColorMatrix in="SourceAlpha" type="matrix" values="0 0 0 0 0 0 0 0 0 0 0 0 0 0 0 0 0 0 127 0" result="hardAlpha"/>
<feOffset dy="5"/>
<feGaussianBlur stdDeviation="2.5"/>
<feColorMatrix type="matrix" values="0 0 0 0 0.298039 0 0 0 0 0.203922 0 0 0 0 0.458824 0 0 0 0.07 0"/>
<feBlend mode="normal" in2="BackgroundImageFix" result="effect1_dropShadow_502_2775"/>
<feBlend mode="normal" in="SourceGraphic" in2="effect1_dropShadow_502_2775" result="shape"/>
</filter>
<linearGradient id="paint0_linear_502_2775" x1="55.0781" y1="110.806" x2="258.566" y2="460.327" gradientUnits="userSpaceOnUse">
<stop stop-color="#53357D"/>
<stop offset="1" stop-color="#BC40F3"/>
</linearGradient>
<clipPath id="clip0_502_2775">
<rect width="550" height="392" fill="white"/>
</clipPath>
</defs>
</svg>
